<svg aria-hidden="true" style="position: absolute; width: 0; height: 0; overflow: hidden;" version="1.1" xmlns="http://www.w3.org/2000/svg" xmlns:xlink="http://www.w3.org/1999/xlink">
<defs>
<symbol id="icon-mail" viewBox="0 0 43 32">
<path d="M37.333 0h-32c-2.2 0-3.981 1.8-3.981 4l-0.019 24c0 2.2 1.8 4 4 4h32c2.2 0 4-1.8 4-4v-24c0-2.2-1.8-4-4-4zM36.533 8.501l-14.139 8.837c-0.302 0.188-0.668 0.3-1.060 0.3s-0.758-0.112-1.069-0.305l0.009 0.005-14.141-8.84c-0.503-0.301-0.835-0.843-0.835-1.463 0-0.938 0.761-1.699 1.699-1.699 0.349 0 0.673 0.105 0.943 0.285l-0.006-0.004 13.4 8.381 13.4-8.381c0.264-0.176 0.588-0.282 0.937-0.282 0.938 0 1.699 0.761 1.699 1.699 0 0.62-0.332 1.162-0.828 1.459l-0.008 0.004z"></path>
</symbol>
<symbol id="icon-Name" viewBox="0 0 32 32">
<path d="M16 16c4.418 0 8-3.582 8-8s-3.582-8-8-8v0c-4.418 0-8 3.582-8 8s3.582 8 8 8v0zM16 20c-5.339 0-16 2.68-16 8v2c0 1.099 0.901 2 2 2h28c1.099 0 2-0.901 2-2v-2c0-5.32-10.661-8-16-8z"></path>
</symbol>
<symbol id="icon-telephone" viewBox="0 0 32 32">
<path d="M27.419 20.853l-4.201-0.48c-0.116-0.014-0.25-0.023-0.385-0.023-0.909 0-1.732 0.369-2.328 0.964l-3.045 3.045c-4.718-2.435-8.467-6.185-10.835-10.764l-0.065-0.139 3.063-3.056c0.596-0.596 0.964-1.419 0.964-2.328 0-0.136-0.008-0.27-0.024-0.401l0.002 0.016-0.48-4.169c-0.199-1.655-1.595-2.926-3.287-2.926-0.001 0-0.003 0-0.004 0h-2.861c-1.87-0.005-3.424 1.55-3.31 3.417 0.878 14.126 12.176 25.408 26.286 26.286 1.867 0.114 3.424-1.44 3.424-3.31v-2.862c0-0.005 0-0.010 0-0.016 0-1.681-1.266-3.067-2.897-3.256l-0.015-0.001z"></path>
</symbol>
<symbol id="icon-text" viewBox="0 0 227 32">
<path fill="#757575" style="fill: var(--color1, #757575)" opacity="0.5" d="M11.727 14.575h-6.287l-0.035-2.641h5.708c0.945 0 1.769-0.16 2.473-0.48 0.704-0.317 1.251-0.771 1.635-1.361 0.399-0.602 0.596-1.318 0.596-2.15 0-0.908-0.175-1.647-0.527-2.214-0.362-0.591-0.912-1.036-1.565-1.256l-0.021-0.006c-0.704-0.273-1.6-0.407-2.694-0.407h-4.841v22.124h-3.287v-24.817h8.128c1.274 0 2.409 0.131 3.409 0.393 1.001 0.247 1.847 0.646 2.54 1.193 0.704 0.532 1.239 1.216 1.6 2.045 0.367 0.829 0.547 1.824 0.547 2.982 0 1.024-0.262 1.949-0.785 2.778-0.521 0.82-1.248 1.489-2.182 2.013-0.919 0.524-1.999 0.858-3.235 1.004l-1.178 0.803zM11.578 26.182h-7.436l1.859-2.676h5.574c1.044 0 1.932-0.18 2.659-0.544 0.736-0.364 1.3-0.876 1.687-1.536 0.384-0.669 0.579-1.46 0.579-2.368 0-0.922-0.166-1.716-0.495-2.385-0.338-0.677-0.874-1.214-1.531-1.544l-0.020-0.009c-0.704-0.364-1.615-0.544-2.729-0.544h-4.687l0.035-2.641h6.409l0.698 0.954c1.193 0.102 2.205 0.442 3.034 1.021 0.829 0.57 1.46 1.297 1.891 2.182 0.445 0.887 0.666 1.862 0.666 2.932 0 1.545-0.34 2.851-1.024 3.921-0.669 1.056-1.617 1.862-2.845 2.42-1.228 0.544-2.671 0.817-4.329 0.817zM33.164 18.065h-6.051l-0.035-2.519h4.945c0.977 0 1.789-0.096 2.438-0.291 0.657-0.192 1.152-0.483 1.484-0.87 0.308-0.367 0.496-0.844 0.496-1.366 0-0.023-0-0.046-0.001-0.069l0 0.003c0-0.013 0-0.028 0-0.043 0-0.829-0.448-1.554-1.116-1.944l-0.011-0.006c-0.402-0.235-0.872-0.408-1.372-0.491l-0.024-0.003c-0.543-0.11-1.167-0.172-1.806-0.172-0.043 0-0.086 0-0.129 0.001l0.007-0h-4.044v15.887h-3.153v-18.444h7.194c1.169 0 2.223 0.102 3.153 0.308 0.943 0.204 1.745 0.515 2.403 0.937 0.669 0.407 1.181 0.931 1.533 1.568 0.355 0.637 0.529 1.388 0.529 2.249 0 0.005 0 0.012 0 0.018 0 1.159-0.521 2.197-1.341 2.892l-0.006 0.005c-0.442 0.387-0.989 0.707-1.635 0.954-0.657 0.24-1.417 0.405-2.207 0.461l-0.027 0.002-1.228 0.937zM33.164 26.182h-7.194l1.568-2.557h5.623c0.876 0 1.603-0.108 2.182-0.323 0.531-0.189 0.973-0.519 1.292-0.947l0.005-0.007c0.277-0.401 0.443-0.898 0.443-1.434 0-0.024-0-0.047-0.001-0.070l0 0.003c0-0.582-0.145-1.076-0.442-1.484-0.318-0.441-0.762-0.774-1.279-0.949l-0.018-0.005c-0.597-0.217-1.285-0.343-2.003-0.343-0.063 0-0.125 0.001-0.188 0.003l0.009-0h-4.788l0.035-2.522h5.981l1.143 0.954c1.009 0.079 1.868 0.329 2.572 0.751 0.707 0.419 1.239 0.954 1.603 1.6 0.364 0.64 0.547 1.329 0.547 2.080 0 0.864-0.166 1.626-0.495 2.284-0.32 0.66-0.785 1.21-1.396 1.655-0.614 0.431-1.359 0.762-2.234 0.989-0.876 0.215-1.862 0.323-2.967 0.323zM52.486 26.522c-1.286 0-2.449-0.215-3.494-0.646-1.048-0.45-1.938-1.080-2.673-1.858l-0.004-0.004c-0.729-0.791-1.309-1.732-1.686-2.77l-0.018-0.058c-0.378-1.033-0.597-2.226-0.597-3.469 0-0.038 0-0.077 0.001-0.115l-0 0.006v-0.716c0-1.501 0.221-2.836 0.663-4.006 0.442-1.184 1.047-2.182 1.807-3.002 0.712-0.776 1.574-1.402 2.54-1.836l0.049-0.020c0.883-0.399 1.914-0.631 2.999-0.631 0.001 0 0.002 0 0.003 0h-0c1.318 0 2.455 0.227 3.409 0.681 0.966 0.457 1.757 1.091 2.371 1.911 0.611 0.806 1.068 1.76 1.361 2.863 0.297 1.091 0.445 2.284 0.445 3.578v1.417h-13.775v-2.575h10.618v-0.239c-0.049-0.87-0.231-1.683-0.528-2.439l0.018 0.053c-0.281-0.772-0.751-1.419-1.356-1.905l-0.008-0.007c-0.625-0.497-1.478-0.748-2.557-0.748-0.013-0-0.028-0-0.042-0-1.431 0-2.698 0.7-3.478 1.777l-0.009 0.012c-0.44 0.618-0.785 1.34-0.993 2.118l-0.011 0.047c-0.239 0.852-0.358 1.833-0.358 2.95v0.716c0 0.873 0.116 1.699 0.358 2.473 0.247 0.759 0.608 1.431 1.073 2.007 0.477 0.582 1.050 1.036 1.719 1.367 0.684 0.329 1.455 0.495 2.319 0.495 1.114 0 2.057-0.23 2.831-0.684s1.449-1.062 2.028-1.824l1.911 1.519c-0.399 0.602-0.905 1.175-1.519 1.719-0.642 0.557-1.395 1.008-2.219 1.313l-0.050 0.016c-0.881 0.326-1.899 0.514-2.96 0.514-0.067 0-0.134-0.001-0.2-0.002l0.010 0zM67.017 7.738h3.153l-0.273 6.903c-0.042 1.629-0.257 3.187-0.628 4.684l0.031-0.149c-0.329 1.271-0.751 2.356-1.263 3.255-0.509 0.887-1.085 1.629-1.719 2.234-0.625 0.602-1.274 1.105-1.943 1.516h-1.571l0.087-2.575 0.649-0.017c0.372-0.442 0.736-0.896 1.088-1.361 0.355-0.477 0.678-1.041 0.972-1.687 0.297-0.66 0.541-1.46 0.733-2.406 0.204-0.954 0.337-2.118 0.393-3.491l0.291-6.906zM67.802 7.738h11.095v18.444h-3.153v-15.529h-7.942v-2.915zM62.089 23.593h19.177v8.029h-3.156v-5.44h-12.87v5.44h-3.171l0.017-8.029zM88.535 7.738v18.444h-3.171v-18.444h3.171zM85.123 2.851c0-0.512 0.154-0.945 0.463-1.297 0.317-0.349 0.783-0.527 1.396-0.527 0.602 0 1.062 0.175 1.382 0.527 0.329 0.352 0.495 0.785 0.495 1.297 0 0.008 0 0.017 0 0.027 0 0.479-0.189 0.913-0.495 1.233l0.001-0.001c-0.32 0.34-0.78 0.512-1.382 0.512-0.614 0-1.079-0.172-1.396-0.512-0.289-0.326-0.466-0.757-0.466-1.23 0-0.011 0-0.021 0-0.032l-0 0.002zM101.46 7.741v18.441h-3.171v-18.444h3.171zM107.648 7.741v2.56h-15.424v-2.56h15.424zM113.69 14.083h5.542c1.487 0 2.743 0.262 3.767 0.785 1.021 0.509 1.795 1.222 2.316 2.129 0.535 0.896 0.803 1.92 0.803 3.066 0 0.852-0.148 1.655-0.445 2.406-0.31 0.764-0.761 1.412-1.326 1.94l-0.003 0.003c-0.603 0.564-1.324 1.010-2.121 1.296l-0.043 0.013c-0.852 0.308-1.833 0.463-2.947 0.463h-7.843v-18.447h3.153v15.855h4.689c0.908 0 1.635-0.166 2.182-0.495 0.514-0.299 0.918-0.737 1.168-1.263l0.007-0.017c0.228-0.48 0.36-1.043 0.36-1.636s-0.133-1.157-0.37-1.66l0.010 0.024c-0.259-0.557-0.662-1.010-1.162-1.322l-0.013-0.008c-0.547-0.364-1.274-0.547-2.182-0.547h-5.545v-2.589zM146.929 7.741v18.441h-3.171v-18.444h3.171zM153.117 7.741v2.56h-15.43v-2.56h15.427zM162.857 26.525c-1.283 0-2.447-0.215-3.491-0.646-1.048-0.45-1.938-1.080-2.673-1.858l-0.004-0.004c-0.73-0.791-1.311-1.732-1.689-2.77l-0.018-0.057c-0.378-1.033-0.597-2.226-0.597-3.469 0-0.038 0-0.077 0.001-0.115l-0 0.006v-0.716c0-1.501 0.221-2.836 0.666-4.006 0.442-1.184 1.047-2.182 1.804-3.002 0.714-0.776 1.577-1.403 2.546-1.836l0.049-0.020c0.882-0.398 1.912-0.631 2.996-0.631h0c1.321 0 2.455 0.227 3.412 0.681 0.966 0.457 1.754 1.091 2.368 1.911 0.614 0.806 1.068 1.76 1.364 2.863 0.294 1.091 0.442 2.284 0.442 3.578v1.417h-13.772v-2.577h10.618v-0.239c-0.050-0.87-0.234-1.683-0.531-2.439l0.019 0.053c-0.28-0.772-0.749-1.419-1.353-1.905l-0.008-0.006c-0.625-0.497-1.478-0.748-2.56-0.748-0.011-0-0.025-0-0.038-0-1.431 0-2.699 0.7-3.479 1.777l-0.009 0.012c-0.441 0.618-0.787 1.34-0.996 2.117l-0.011 0.047c-0.239 0.852-0.358 1.833-0.358 2.95v0.716c0 0.873 0.119 1.699 0.358 2.473 0.25 0.759 0.611 1.431 1.076 2.007 0.474 0.582 1.047 1.036 1.719 1.367 0.681 0.329 1.455 0.495 2.319 0.495 1.114 0 2.057-0.23 2.831-0.684 0.802-0.482 1.475-1.091 2.015-1.806l0.013-0.018 1.908 1.519c-0.442 0.652-0.942 1.217-1.506 1.711l-0.010 0.009c-0.614 0.547-1.37 0.989-2.269 1.329-0.881 0.326-1.898 0.514-2.96 0.514-0.068 0-0.136-0.001-0.204-0.002l0.010 0zM177.489 7.741v18.441h-3.153v-18.444h3.156zM189.591 7.741l-8.742 10.569h-4.416l-0.477-2.764h3.613l6.188-7.805h3.837zM186.205 26.182l-6.784-8.352 2.028-2.284 8.759 10.636h-4.006zM200.41 23.933c0.751 0 1.443-0.154 2.080-0.463 0.637-0.305 1.161-0.727 1.571-1.26 0.407-0.547 0.64-1.164 0.698-1.859h2.996c-0.055 1.091-0.425 2.109-1.105 3.052-0.694 0.946-1.578 1.711-2.6 2.249l-0.041 0.020c-1.020 0.536-2.228 0.85-3.509 0.85-0.031 0-0.063-0-0.094-0.001l0.005 0c-1.385 0-2.595-0.244-3.631-0.733-1.019-0.485-1.874-1.164-2.546-1.997l-0.011-0.014c-0.654-0.833-1.172-1.809-1.499-2.869l-0.017-0.064c-0.314-1.037-0.495-2.229-0.495-3.463 0-0.023 0-0.046 0-0.069v0.004-0.716c0-1.239 0.166-2.409 0.495-3.511 0.341-1.13 0.859-2.112 1.53-2.969l-0.015 0.020c0.684-0.852 1.536-1.521 2.56-2.010 1.033-0.489 2.24-0.733 3.628-0.733 1.443 0 2.705 0.297 3.785 0.887 1.079 0.579 1.926 1.373 2.54 2.385 0.625 1.001 0.966 2.135 1.024 3.409h-2.999c-0.051-0.77-0.285-1.475-0.66-2.085l0.011 0.020c-0.368-0.614-0.876-1.109-1.481-1.453l-0.020-0.010c-0.602-0.354-1.325-0.563-2.098-0.563-0.036 0-0.071 0-0.107 0.001l0.005-0c-0.966 0-1.777 0.192-2.438 0.579-0.646 0.375-1.164 0.884-1.551 1.533-0.363 0.614-0.646 1.328-0.809 2.085l-0.008 0.047c-0.152 0.707-0.239 1.52-0.239 2.352 0 0.005 0 0.011 0 0.016v-0.001 0.716c0 0.806 0.079 1.6 0.239 2.385s0.428 1.495 0.8 2.132c0.387 0.637 0.902 1.146 1.553 1.533 0.657 0.378 1.475 0.564 2.452 0.564zM219.168 7.738v18.444h-3.171v-18.444h3.171zM225.356 7.738v2.56h-15.424v-2.56h15.424z"></path>
</symbol>
</defs>
</svg>
