<svg width="78" height="11" viewBox="0 0 78 11" fill="none" xmlns="http://www.w3.org/2000/svg">
<path d="M4.03125 5.00977H1.86914L1.85742 4.10156H3.82031C4.14453 4.10156 4.42773 4.04688 4.66992 3.9375C4.91211 3.82812 5.09961 3.67188 5.23242 3.46875C5.36914 3.26172 5.4375 3.01562 5.4375 2.73047C5.4375 2.41797 5.37695 2.16406 5.25586 1.96875C5.13867 1.76953 4.95703 1.625 4.71094 1.53516C4.46875 1.44141 4.16016 1.39453 3.78516 1.39453H2.12109V9H0.990234V0.46875H3.78516C4.22266 0.46875 4.61328 0.513672 4.95703 0.603516C5.30078 0.689453 5.5918 0.826172 5.83008 1.01367C6.07227 1.19727 6.25586 1.43164 6.38086 1.7168C6.50586 2.00195 6.56836 2.34375 6.56836 2.74219C6.56836 3.09375 6.47852 3.41211 6.29883 3.69727C6.11914 3.97852 5.86914 4.20898 5.54883 4.38867C5.23242 4.56836 4.86133 4.68359 4.43555 4.73438L4.03125 5.00977ZM3.97852 9H1.42383L2.0625 8.08008H3.97852C4.33789 8.08008 4.64258 8.01758 4.89258 7.89258C5.14648 7.76758 5.33984 7.5918 5.47266 7.36523C5.60547 7.13477 5.67188 6.86328 5.67188 6.55078C5.67188 6.23438 5.61523 5.96094 5.50195 5.73047C5.38867 5.5 5.21094 5.32227 4.96875 5.19727C4.72656 5.07227 4.41406 5.00977 4.03125 5.00977H2.41992L2.43164 4.10156H4.63477L4.875 4.42969C5.28516 4.46484 5.63281 4.58203 5.91797 4.78125C6.20312 4.97656 6.41992 5.22656 6.56836 5.53125C6.7207 5.83594 6.79688 6.17188 6.79688 6.53906C6.79688 7.07031 6.67969 7.51953 6.44531 7.88672C6.21484 8.25 5.88867 8.52734 5.4668 8.71875C5.04492 8.90625 4.54883 9 3.97852 9ZM11.3993 6.21094H9.31922L9.3075 5.34375H11.0067C11.3427 5.34375 11.622 5.31055 11.8446 5.24414C12.0712 5.17773 12.2411 5.07812 12.3544 4.94531C12.4677 4.8125 12.5243 4.64844 12.5243 4.45312C12.5243 4.30078 12.4911 4.16797 12.4247 4.05469C12.3622 3.9375 12.2665 3.8418 12.1376 3.76758C12.0087 3.68945 11.8485 3.63281 11.6571 3.59766C11.4696 3.55859 11.2489 3.53906 10.995 3.53906H9.60633V9H8.52234V2.66016H10.995C11.3973 2.66016 11.7587 2.69531 12.079 2.76562C12.4032 2.83594 12.6786 2.94336 12.9052 3.08789C13.1356 3.22852 13.3114 3.4082 13.4325 3.62695C13.5536 3.8457 13.6141 4.10352 13.6141 4.40039C13.6141 4.5918 13.5751 4.77344 13.497 4.94531C13.4188 5.11719 13.3036 5.26953 13.1512 5.40234C12.9989 5.53516 12.8114 5.64453 12.5887 5.73047C12.3661 5.8125 12.1102 5.86523 11.8212 5.88867L11.3993 6.21094ZM11.3993 9H8.92664L9.4657 8.12109H11.3993C11.7001 8.12109 11.9501 8.08398 12.1493 8.00977C12.3485 7.93164 12.497 7.82227 12.5946 7.68164C12.6962 7.53711 12.747 7.36523 12.747 7.16602C12.747 6.9668 12.6962 6.79688 12.5946 6.65625C12.497 6.51172 12.3485 6.40234 12.1493 6.32812C11.9501 6.25 11.7001 6.21094 11.3993 6.21094H9.75281L9.76453 5.34375H11.8212L12.2137 5.67188C12.5614 5.69922 12.8563 5.78516 13.0985 5.92969C13.3407 6.07422 13.5243 6.25781 13.6493 6.48047C13.7743 6.69922 13.8368 6.9375 13.8368 7.19531C13.8368 7.49219 13.7802 7.75391 13.6669 7.98047C13.5575 8.20703 13.3973 8.39648 13.1864 8.54883C12.9755 8.69727 12.7196 8.81055 12.4188 8.88867C12.118 8.96289 11.7782 9 11.3993 9ZM18.0408 9.11719C17.5994 9.11719 17.199 9.04297 16.8396 8.89453C16.4841 8.74219 16.1775 8.5293 15.9197 8.25586C15.6658 7.98242 15.4705 7.6582 15.3337 7.2832C15.197 6.9082 15.1287 6.49805 15.1287 6.05273V5.80664C15.1287 5.29102 15.2048 4.83203 15.3572 4.42969C15.5095 4.02344 15.7166 3.67969 15.9783 3.39844C16.24 3.11719 16.5369 2.9043 16.8689 2.75977C17.2009 2.61523 17.5447 2.54297 17.9002 2.54297C18.3533 2.54297 18.7439 2.62109 19.072 2.77734C19.4041 2.93359 19.6755 3.15234 19.8865 3.43359C20.0974 3.71094 20.2537 4.03906 20.3552 4.41797C20.4568 4.79297 20.5076 5.20312 20.5076 5.64844V6.13477H15.7732V5.25H19.4236V5.16797C19.408 4.88672 19.3494 4.61328 19.2478 4.34766C19.1502 4.08203 18.9939 3.86328 18.7791 3.69141C18.5642 3.51953 18.2712 3.43359 17.9002 3.43359C17.6541 3.43359 17.4275 3.48633 17.2205 3.5918C17.0134 3.69336 16.8357 3.8457 16.6873 4.04883C16.5388 4.25195 16.4236 4.5 16.3416 4.79297C16.2595 5.08594 16.2185 5.42383 16.2185 5.80664V6.05273C16.2185 6.35352 16.2595 6.63672 16.3416 6.90234C16.4275 7.16406 16.5505 7.39453 16.7107 7.59375C16.8748 7.79297 17.072 7.94922 17.3025 8.0625C17.5369 8.17578 17.8025 8.23242 18.0994 8.23242C18.4822 8.23242 18.8064 8.1543 19.072 7.99805C19.3377 7.8418 19.5701 7.63281 19.7693 7.37109L20.4255 7.89258C20.2888 8.09961 20.115 8.29688 19.9041 8.48438C19.6931 8.67188 19.4334 8.82422 19.1248 8.94141C18.8201 9.05859 18.4587 9.11719 18.0408 9.11719ZM23.0358 2.66016H24.1198L24.026 5.0332C24.0026 5.63477 23.9342 6.1543 23.8209 6.5918C23.7077 7.0293 23.5631 7.40234 23.3873 7.71094C23.2116 8.01562 23.0143 8.27148 22.7955 8.47852C22.5807 8.68555 22.358 8.85938 22.1276 9H21.5885L21.6178 8.11523L21.8405 8.10938C21.9694 7.95703 22.0944 7.80078 22.2155 7.64062C22.3366 7.47656 22.4479 7.2832 22.5495 7.06055C22.651 6.83398 22.735 6.55859 22.8014 6.23438C22.8717 5.90625 22.9166 5.50586 22.9362 5.0332L23.0358 2.66016ZM23.3053 2.66016H27.1198V9H26.0358V3.66211H23.3053V2.66016ZM21.3424 8.10938H27.9342V10.8691H26.8502V9H22.4264V10.8691H21.3366L21.3424 8.10938ZM30.4331 2.66016V9H29.3433V2.66016H30.4331ZM29.2612 0.978516C29.2612 0.802734 29.314 0.654297 29.4195 0.533203C29.5288 0.412109 29.689 0.351562 29.8999 0.351562C30.107 0.351562 30.2652 0.412109 30.3745 0.533203C30.4878 0.654297 30.5445 0.802734 30.5445 0.978516C30.5445 1.14648 30.4878 1.29102 30.3745 1.41211C30.2652 1.5293 30.107 1.58789 29.8999 1.58789C29.689 1.58789 29.5288 1.5293 29.4195 1.41211C29.314 1.29102 29.2612 1.14648 29.2612 0.978516ZM34.8773 2.66016V9H33.7875V2.66016H34.8773ZM37.0043 2.66016V3.53906H31.7016V2.66016H37.0043ZM39.0813 4.83984H40.9856C41.4973 4.83984 41.929 4.92969 42.2805 5.10938C42.6321 5.28516 42.8977 5.5293 43.0774 5.8418C43.261 6.15039 43.3528 6.50195 43.3528 6.89648C43.3528 7.18945 43.302 7.46484 43.2005 7.72266C43.0989 7.97656 42.9466 8.19922 42.7434 8.39062C42.5442 8.58203 42.2962 8.73242 41.9993 8.8418C41.7063 8.94727 41.3684 9 40.9856 9H38.2903V2.66016H39.3743V8.10938H40.9856C41.2981 8.10938 41.5481 8.05273 41.7356 7.93945C41.9231 7.82617 42.0579 7.67969 42.1399 7.5C42.222 7.32031 42.263 7.13281 42.263 6.9375C42.263 6.74609 42.222 6.55859 42.1399 6.375C42.0579 6.19141 41.9231 6.03906 41.7356 5.91797C41.5481 5.79297 41.2981 5.73047 40.9856 5.73047H39.0813V4.83984ZM50.5069 2.66016V9H49.417V2.66016H50.5069ZM52.6338 2.66016V3.53906H47.3311V2.66016H52.6338ZM55.9823 9.11719C55.5409 9.11719 55.1405 9.04297 54.7812 8.89453C54.4257 8.74219 54.1191 8.5293 53.8613 8.25586C53.6073 7.98242 53.412 7.6582 53.2753 7.2832C53.1386 6.9082 53.0702 6.49805 53.0702 6.05273V5.80664C53.0702 5.29102 53.1464 4.83203 53.2988 4.42969C53.4511 4.02344 53.6581 3.67969 53.9198 3.39844C54.1816 3.11719 54.4784 2.9043 54.8105 2.75977C55.1425 2.61523 55.4863 2.54297 55.8417 2.54297C56.2948 2.54297 56.6855 2.62109 57.0136 2.77734C57.3456 2.93359 57.6171 3.15234 57.828 3.43359C58.039 3.71094 58.1952 4.03906 58.2968 4.41797C58.3984 4.79297 58.4491 5.20312 58.4491 5.64844V6.13477H53.7148V5.25H57.3652V5.16797C57.3495 4.88672 57.2909 4.61328 57.1894 4.34766C57.0917 4.08203 56.9355 3.86328 56.7206 3.69141C56.5058 3.51953 56.2128 3.43359 55.8417 3.43359C55.5956 3.43359 55.3691 3.48633 55.162 3.5918C54.955 3.69336 54.7773 3.8457 54.6288 4.04883C54.4804 4.25195 54.3652 4.5 54.2831 4.79297C54.2011 5.08594 54.1601 5.42383 54.1601 5.80664V6.05273C54.1601 6.35352 54.2011 6.63672 54.2831 6.90234C54.3691 7.16406 54.4921 7.39453 54.6523 7.59375C54.8163 7.79297 55.0136 7.94922 55.2441 8.0625C55.4784 8.17578 55.7441 8.23242 56.0409 8.23242C56.4238 8.23242 56.748 8.1543 57.0136 7.99805C57.2792 7.8418 57.5116 7.63281 57.7109 7.37109L58.3671 7.89258C58.2304 8.09961 58.0566 8.29688 57.8456 8.48438C57.6347 8.67188 57.3749 8.82422 57.0663 8.94141C56.7616 9.05859 56.4003 9.11719 55.9823 9.11719ZM61.0125 2.66016V9H59.9285V2.66016H61.0125ZM65.1727 2.66016L62.1668 6.29297H60.6492L60.4852 5.34375H61.7273L63.8543 2.66016H65.1727ZM64.0066 9L61.6746 6.12891L62.3719 5.34375L65.3836 9H64.0066ZM68.8903 8.22656C69.1481 8.22656 69.3864 8.17383 69.6052 8.06836C69.8239 7.96289 70.0036 7.81836 70.1442 7.63477C70.2848 7.44727 70.3649 7.23438 70.3845 6.99609H71.4157C71.3962 7.37109 71.2692 7.7207 71.0348 8.04492C70.8044 8.36523 70.5016 8.625 70.1266 8.82422C69.7516 9.01953 69.3395 9.11719 68.8903 9.11719C68.4137 9.11719 67.9977 9.0332 67.6423 8.86523C67.2907 8.69727 66.9977 8.4668 66.7634 8.17383C66.5329 7.88086 66.3591 7.54492 66.2419 7.16602C66.1286 6.7832 66.072 6.37891 66.072 5.95312V5.70703C66.072 5.28125 66.1286 4.87891 66.2419 4.5C66.3591 4.11719 66.5329 3.7793 66.7634 3.48633C66.9977 3.19336 67.2907 2.96289 67.6423 2.79492C67.9977 2.62695 68.4137 2.54297 68.8903 2.54297C69.3864 2.54297 69.82 2.64453 70.1911 2.84766C70.5622 3.04688 70.8532 3.32031 71.0641 3.66797C71.279 4.01172 71.3962 4.40234 71.4157 4.83984H70.3845C70.3649 4.57812 70.2907 4.3418 70.1618 4.13086C70.0368 3.91992 69.8649 3.75195 69.6462 3.62695C69.4313 3.49805 69.1794 3.43359 68.8903 3.43359C68.5583 3.43359 68.279 3.5 68.0524 3.63281C67.8298 3.76172 67.652 3.9375 67.5192 4.16016C67.3903 4.37891 67.2966 4.62305 67.238 4.89258C67.1833 5.1582 67.1559 5.42969 67.1559 5.70703V5.95312C67.1559 6.23047 67.1833 6.50391 67.238 6.77344C67.2927 7.04297 67.3845 7.28711 67.5134 7.50586C67.6462 7.72461 67.8239 7.90039 68.0466 8.0332C68.2731 8.16211 68.5544 8.22656 68.8903 8.22656ZM75.3384 2.66016V9H74.2486V2.66016H75.3384ZM77.4654 2.66016V3.53906H72.1627V2.66016H77.4654Z" fill="#757575" fill-opacity="0.5"/>
</svg>
