<svg width="144" height="30" viewBox="0 0 144 30" fill="none" xmlns="http://www.w3.org/2000/svg">
<path d="M15.4613 8.625V20H13.1175V10.4609H8.54719V20H6.20344V8.625H15.4613ZM20.7025 11.5469V20H18.4447V11.5469H20.7025ZM18.3041 9.34375C18.3041 9.01562 18.4186 8.74479 18.6478 8.53125C18.877 8.31771 19.1843 8.21094 19.5697 8.21094C19.9499 8.21094 20.2546 8.31771 20.4838 8.53125C20.7181 8.74479 20.8353 9.01562 20.8353 9.34375C20.8353 9.67188 20.7181 9.94271 20.4838 10.1562C20.2546 10.3698 19.9499 10.4766 19.5697 10.4766C19.1843 10.4766 18.877 10.3698 18.6478 10.1562C18.4186 9.94271 18.3041 9.67188 18.3041 9.34375ZM25.0453 11.5469H27.2953L27.225 14.375C27.2042 15.2812 27.1 16.0599 26.9125 16.7109C26.725 17.362 26.475 17.9089 26.1625 18.3516C25.85 18.7943 25.4932 19.1484 25.0922 19.4141C24.6964 19.6745 24.2797 19.8698 23.8422 20H23.4203L23.3969 18.2656L23.6313 18.2422C23.8969 17.9661 24.1156 17.6979 24.2875 17.4375C24.4594 17.1719 24.5922 16.8932 24.6859 16.6016C24.7797 16.3099 24.8474 15.9844 24.8891 15.625C24.9359 15.2656 24.9646 14.849 24.975 14.375L25.0453 11.5469ZM25.6547 11.5469H31.2563V20H29.0141V13.3516H25.6547V11.5469ZM22.9047 18.2422H32.4672V22.5391H30.2172V20H25.2094V22.5391H22.9047V18.2422ZM40.1694 11.5469V13.3125H36.0756V11.5469H40.1694ZM36.7241 11.5469V20H34.4741V11.5469H36.7241ZM41.81 11.5469V20H39.5522V11.5469H41.81ZM46.7466 16.8594L49.5825 11.5469H51.8325V20H49.5825V14.6797L46.7466 20H44.4966V11.5469H46.7466V16.8594ZM58.0191 18.3984C58.2951 18.3984 58.5399 18.3464 58.7534 18.2422C58.967 18.1328 59.1336 17.9818 59.2534 17.7891C59.3784 17.5911 59.4435 17.3594 59.4487 17.0938H61.5659C61.5607 17.6875 61.4019 18.2161 61.0894 18.6797C60.7769 19.138 60.3576 19.5 59.8316 19.7656C59.3055 20.026 58.717 20.1562 58.0659 20.1562C57.4097 20.1562 56.8368 20.0469 56.3472 19.8281C55.8628 19.6094 55.4592 19.3073 55.1362 18.9219C54.8133 18.5312 54.5711 18.0781 54.4097 17.5625C54.2482 17.0417 54.1675 16.4844 54.1675 15.8906V15.6641C54.1675 15.0651 54.2482 14.5078 54.4097 13.9922C54.5711 13.4714 54.8133 13.0182 55.1362 12.6328C55.4592 12.2422 55.8628 11.9375 56.3472 11.7188C56.8316 11.5 57.3993 11.3906 58.0503 11.3906C58.743 11.3906 59.3498 11.5234 59.8706 11.7891C60.3967 12.0547 60.8081 12.4349 61.105 12.9297C61.4071 13.4193 61.5607 14 61.5659 14.6719H59.4487C59.4435 14.3906 59.3836 14.1354 59.2691 13.9062C59.1597 13.6771 58.9982 13.4948 58.7847 13.3594C58.5764 13.2188 58.3185 13.1484 58.0112 13.1484C57.6831 13.1484 57.4149 13.2188 57.2066 13.3594C56.9982 13.4948 56.8368 13.6823 56.7222 13.9219C56.6076 14.1562 56.5269 14.4245 56.48 14.7266C56.4383 15.0234 56.4175 15.3359 56.4175 15.6641V15.8906C56.4175 16.2188 56.4383 16.5339 56.48 16.8359C56.5217 17.138 56.5998 17.4062 56.7144 17.6406C56.8342 17.875 56.9982 18.0599 57.2066 18.1953C57.4149 18.3307 57.6857 18.3984 58.0191 18.3984ZM68.3931 18.0938V14.3281C68.3931 14.0573 68.3489 13.8255 68.2603 13.6328C68.1718 13.4349 68.0338 13.2812 67.8463 13.1719C67.664 13.0625 67.427 13.0078 67.1353 13.0078C66.8853 13.0078 66.6692 13.0521 66.4869 13.1406C66.3046 13.224 66.164 13.3464 66.065 13.5078C65.966 13.6641 65.9166 13.849 65.9166 14.0625H63.6666C63.6666 13.7031 63.7499 13.362 63.9166 13.0391C64.0832 12.7161 64.3254 12.4323 64.6431 12.1875C64.9608 11.9375 65.3384 11.7422 65.7759 11.6016C66.2186 11.4609 66.7134 11.3906 67.2603 11.3906C67.9166 11.3906 68.4999 11.5 69.0103 11.7188C69.5207 11.9375 69.9218 12.2656 70.2134 12.7031C70.5103 13.1406 70.6588 13.6875 70.6588 14.3438V17.9609C70.6588 18.4245 70.6874 18.8047 70.7447 19.1016C70.802 19.3932 70.8853 19.6484 70.9947 19.8672V20H68.7213C68.6119 19.7708 68.5285 19.4844 68.4713 19.1406C68.4192 18.7917 68.3931 18.4427 68.3931 18.0938ZM68.69 14.8516L68.7056 16.125H67.4478C67.1509 16.125 66.8931 16.1589 66.6744 16.2266C66.4556 16.2943 66.2759 16.3906 66.1353 16.5156C65.9947 16.6354 65.8905 16.776 65.8228 16.9375C65.7603 17.099 65.7291 17.276 65.7291 17.4688C65.7291 17.6615 65.7733 17.8359 65.8619 17.9922C65.9504 18.1432 66.078 18.263 66.2447 18.3516C66.4114 18.4349 66.6067 18.4766 66.8306 18.4766C67.1692 18.4766 67.4634 18.4089 67.7134 18.2734C67.9634 18.138 68.1561 17.9714 68.2916 17.7734C68.4322 17.5755 68.5051 17.388 68.5103 17.2109L69.1041 18.1641C69.0207 18.3776 68.9061 18.599 68.7603 18.8281C68.6197 19.0573 68.44 19.2734 68.2213 19.4766C68.0025 19.6745 67.7395 19.8385 67.4322 19.9688C67.1249 20.0938 66.7603 20.1562 66.3384 20.1562C65.802 20.1562 65.315 20.0495 64.8775 19.8359C64.4452 19.6172 64.1015 19.3177 63.8463 18.9375C63.5963 18.5521 63.4713 18.1146 63.4713 17.625C63.4713 17.1823 63.5546 16.7891 63.7213 16.4453C63.8879 16.1016 64.1327 15.8125 64.4556 15.5781C64.7838 15.3385 65.1926 15.1589 65.6822 15.0391C66.1718 14.9141 66.7395 14.8516 67.3853 14.8516H68.69ZM77.5328 11.5469V20H75.275V11.5469H77.5328ZM80.2516 11.5469V13.2891H72.5953V11.5469H80.2516ZM84.6022 16.8594L87.4381 11.5469H89.6881V20H87.4381V14.6797L84.6022 20H82.3522V11.5469H84.6022V16.8594ZM95.8747 18.3984C96.1507 18.3984 96.3955 18.3464 96.6091 18.2422C96.8226 18.1328 96.9893 17.9818 97.1091 17.7891C97.2341 17.5911 97.2992 17.3594 97.3044 17.0938H99.4216C99.4164 17.6875 99.2575 18.2161 98.945 18.6797C98.6325 19.138 98.2132 19.5 97.6872 19.7656C97.1611 20.026 96.5726 20.1562 95.9216 20.1562C95.2653 20.1562 94.6924 20.0469 94.2028 19.8281C93.7184 19.6094 93.3148 19.3073 92.9919 18.9219C92.669 18.5312 92.4268 18.0781 92.2653 17.5625C92.1039 17.0417 92.0231 16.4844 92.0231 15.8906V15.6641C92.0231 15.0651 92.1039 14.5078 92.2653 13.9922C92.4268 13.4714 92.669 13.0182 92.9919 12.6328C93.3148 12.2422 93.7184 11.9375 94.2028 11.7188C94.6872 11.5 95.2549 11.3906 95.9059 11.3906C96.5986 11.3906 97.2054 11.5234 97.7262 11.7891C98.2523 12.0547 98.6637 12.4349 98.9606 12.9297C99.2627 13.4193 99.4164 14 99.4216 14.6719H97.3044C97.2992 14.3906 97.2393 14.1354 97.1247 13.9062C97.0153 13.6771 96.8539 13.4948 96.6403 13.3594C96.432 13.2188 96.1742 13.1484 95.8669 13.1484C95.5387 13.1484 95.2705 13.2188 95.0622 13.3594C94.8539 13.4948 94.6924 13.6823 94.5778 13.9219C94.4632 14.1562 94.3825 14.4245 94.3356 14.7266C94.294 15.0234 94.2731 15.3359 94.2731 15.6641V15.8906C94.2731 16.2188 94.294 16.5339 94.3356 16.8359C94.3773 17.138 94.4554 17.4062 94.57 17.6406C94.6898 17.875 94.8539 18.0599 95.0622 18.1953C95.2705 18.3307 95.5414 18.3984 95.8747 18.3984ZM103.507 15.7812H105.788L103.436 20H101.163L103.507 15.7812ZM105.022 11.5469H108.733V20H106.483V13.2891H105.022C104.715 13.2891 104.46 13.3464 104.257 13.4609C104.053 13.5703 103.902 13.7135 103.803 13.8906C103.71 14.0625 103.663 14.2396 103.663 14.4219C103.663 14.599 103.71 14.7708 103.803 14.9375C103.897 15.1042 104.043 15.2422 104.241 15.3516C104.439 15.4609 104.686 15.5156 104.983 15.5156H107.319V17.0469H104.983C104.426 17.0469 103.926 16.9792 103.483 16.8438C103.046 16.7083 102.671 16.5208 102.358 16.2812C102.051 16.0365 101.814 15.7526 101.647 15.4297C101.486 15.1016 101.405 14.7422 101.405 14.3516C101.405 13.9453 101.488 13.5729 101.655 13.2344C101.822 12.8958 102.061 12.599 102.374 12.3438C102.686 12.0885 103.064 11.8932 103.507 11.7578C103.954 11.6172 104.46 11.5469 105.022 11.5469Z" fill="white"/>
<path d="M144 3L120 16.5L127.67 19.3407L139.5 8.25002L130.502 20.3896L130.509 20.3923L130.5 20.3896V27.0001L134.801 21.982L140.25 24.0001L144 3Z" fill="white"/>
</svg>
