<svg aria-hidden="true" style="position: absolute; width: 0; height: 0; overflow: hidden;" version="1.1" xmlns="http://www.w3.org/2000/svg" xmlns:xlink="http://www.w3.org/1999/xlink">
<defs>
<symbol id="icon-telegram" viewBox="0 0 154 32">
<path fill="#fff" style="fill: var(--color1, #fff)" d="M16.492 9.2v12.133h-2.5v-10.175h-4.875v10.175h-2.5v-12.133h9.875zM22.083 12.317v9.017h-2.408v-9.017h2.408zM19.524 9.967c0-0.35 0.122-0.639 0.367-0.867s0.572-0.342 0.983-0.342c0.406 0 0.731 0.114 0.975 0.342 0.25 0.228 0.375 0.517 0.375 0.867s-0.125 0.639-0.375 0.867c-0.244 0.228-0.57 0.342-0.975 0.342-0.411 0-0.739-0.114-0.983-0.342s-0.367-0.517-0.367-0.867zM26.715 12.317h2.4l-0.075 3.017c-0.022 0.967-0.133 1.797-0.333 2.492s-0.467 1.278-0.8 1.75-0.714 0.85-1.142 1.133c-0.422 0.278-0.867 0.486-1.333 0.625h-0.45l-0.025-1.85 0.25-0.025c0.283-0.294 0.517-0.581 0.7-0.858 0.183-0.283 0.325-0.581 0.425-0.892s0.172-0.658 0.217-1.042c0.050-0.383 0.081-0.828 0.092-1.333l0.075-3.017zM27.365 12.317h5.975v9.017h-2.392v-7.092h-3.583v-1.925zM24.432 19.458h10.2v4.583h-2.4v-2.708h-5.342v2.708h-2.458v-4.583zM42.847 12.317v1.883h-4.367v-1.883h4.367zM39.172 12.317v9.017h-2.4v-9.017h2.4zM44.597 12.317v9.017h-2.408v-9.017h2.408zM49.863 17.983l3.025-5.667h2.4v9.017h-2.4v-5.675l-3.025 5.675h-2.4v-9.017h2.4v5.667zM61.887 19.625c0.294 0 0.556-0.055 0.783-0.167 0.228-0.117 0.406-0.278 0.533-0.483 0.133-0.211 0.203-0.458 0.208-0.742h2.258c-0.006 0.633-0.175 1.197-0.508 1.692-0.333 0.489-0.781 0.875-1.342 1.158-0.561 0.278-1.189 0.417-1.883 0.417-0.7 0-1.311-0.117-1.833-0.35-0.517-0.233-0.947-0.556-1.292-0.967-0.344-0.417-0.603-0.9-0.775-1.45-0.172-0.556-0.258-1.15-0.258-1.783v-0.242c0-0.639 0.086-1.233 0.258-1.783 0.172-0.556 0.431-1.039 0.775-1.45 0.345-0.417 0.775-0.742 1.292-0.975s1.122-0.35 1.817-0.35c0.739 0 1.386 0.142 1.942 0.425 0.561 0.283 1 0.689 1.317 1.217 0.322 0.522 0.486 1.142 0.492 1.858h-2.258c-0.006-0.3-0.069-0.572-0.192-0.817-0.117-0.244-0.289-0.439-0.517-0.583-0.222-0.15-0.497-0.225-0.825-0.225-0.35 0-0.636 0.075-0.858 0.225-0.222 0.144-0.394 0.344-0.517 0.6-0.122 0.25-0.208 0.536-0.258 0.858-0.044 0.317-0.067 0.65-0.067 1v0.242c0 0.35 0.022 0.686 0.067 1.008s0.128 0.608 0.25 0.858c0.128 0.25 0.303 0.447 0.525 0.592s0.511 0.217 0.867 0.217zM72.953 19.3v-4.017c0-0.289-0.047-0.536-0.142-0.742-0.094-0.211-0.242-0.375-0.442-0.492-0.194-0.117-0.447-0.175-0.758-0.175-0.267 0-0.497 0.047-0.692 0.142-0.194 0.089-0.344 0.22-0.45 0.392-0.106 0.167-0.158 0.364-0.158 0.592h-2.4c0-0.383 0.089-0.747 0.267-1.092s0.436-0.647 0.775-0.908c0.339-0.267 0.742-0.475 1.208-0.625 0.472-0.15 1-0.225 1.583-0.225 0.7 0 1.322 0.117 1.867 0.35s0.972 0.583 1.283 1.050c0.317 0.467 0.475 1.050 0.475 1.75v3.858c0 0.494 0.031 0.9 0.092 1.217 0.061 0.311 0.15 0.583 0.267 0.817v0.142h-2.425c-0.117-0.244-0.206-0.55-0.267-0.917-0.056-0.372-0.083-0.744-0.083-1.117zM73.269 15.842l0.017 1.358h-1.342c-0.317 0-0.592 0.036-0.825 0.108s-0.425 0.175-0.575 0.308c-0.15 0.128-0.261 0.278-0.333 0.45-0.067 0.172-0.1 0.361-0.1 0.567s0.047 0.392 0.142 0.558c0.094 0.161 0.231 0.289 0.408 0.383 0.178 0.089 0.386 0.133 0.625 0.133 0.361 0 0.675-0.072 0.942-0.217s0.472-0.322 0.617-0.533c0.15-0.211 0.228-0.411 0.233-0.6l0.633 1.017c-0.089 0.228-0.211 0.464-0.367 0.708-0.15 0.244-0.342 0.475-0.575 0.692-0.233 0.211-0.514 0.386-0.842 0.525-0.328 0.133-0.717 0.2-1.167 0.2-0.572 0-1.092-0.114-1.558-0.342-0.461-0.233-0.828-0.553-1.1-0.958-0.267-0.411-0.4-0.878-0.4-1.4 0-0.472 0.089-0.892 0.267-1.258s0.439-0.675 0.783-0.925c0.35-0.256 0.786-0.447 1.308-0.575 0.522-0.133 1.128-0.2 1.817-0.2h1.392zM82.702 12.317v9.017h-2.408v-9.017h2.408zM85.602 12.317v1.858h-8.167v-1.858h8.167zM90.242 17.983l3.025-5.667h2.4v9.017h-2.4v-5.675l-3.025 5.675h-2.4v-9.017h2.4v5.667zM102.266 19.625c0.294 0 0.556-0.055 0.783-0.167 0.228-0.117 0.406-0.278 0.533-0.483 0.133-0.211 0.203-0.458 0.208-0.742h2.258c-0.006 0.633-0.175 1.197-0.508 1.692-0.333 0.489-0.781 0.875-1.342 1.158-0.561 0.278-1.189 0.417-1.883 0.417-0.7 0-1.311-0.117-1.833-0.35-0.517-0.233-0.947-0.556-1.292-0.967-0.344-0.417-0.603-0.9-0.775-1.45-0.172-0.556-0.258-1.15-0.258-1.783v-0.242c0-0.639 0.086-1.233 0.258-1.783 0.172-0.556 0.431-1.039 0.775-1.45 0.344-0.417 0.775-0.742 1.292-0.975s1.122-0.35 1.817-0.35c0.739 0 1.386 0.142 1.942 0.425 0.561 0.283 1 0.689 1.317 1.217 0.322 0.522 0.486 1.142 0.492 1.858h-2.258c-0.006-0.3-0.069-0.572-0.192-0.817-0.117-0.244-0.289-0.439-0.517-0.583-0.222-0.15-0.497-0.225-0.825-0.225-0.35 0-0.636 0.075-0.858 0.225-0.222 0.144-0.394 0.344-0.517 0.6-0.122 0.25-0.208 0.536-0.258 0.858-0.044 0.317-0.067 0.65-0.067 1v0.242c0 0.35 0.022 0.686 0.067 1.008s0.128 0.608 0.25 0.858c0.128 0.25 0.303 0.447 0.525 0.592s0.511 0.217 0.867 0.217zM110.407 16.833h2.433l-2.509 4.5h-2.425l2.5-4.5zM112.023 12.317h3.958v9.017h-2.4v-7.158h-1.558c-0.327 0-0.599 0.061-0.816 0.183-0.218 0.117-0.379 0.269-0.484 0.458-0.099 0.183-0.149 0.372-0.149 0.567 0 0.189 0.050 0.372 0.149 0.55 0.1 0.178 0.256 0.325 0.467 0.442s0.475 0.175 0.791 0.175h2.492v1.633h-2.492c-0.594 0-1.127-0.072-1.6-0.217-0.466-0.145-0.866-0.345-1.2-0.6-0.327-0.261-0.58-0.564-0.758-0.908-0.172-0.35-0.258-0.733-0.258-1.15 0-0.433 0.089-0.831 0.267-1.192s0.433-0.678 0.767-0.95c0.333-0.272 0.736-0.481 1.209-0.625 0.477-0.15 1.017-0.225 1.616-0.225z"></path>
<path fill="#fff" style="fill: var(--color1, #fff)" d="M153.6 3.2l-25.6 14.4 8.181 3.030 12.619-11.83-9.598 12.949 0.007 0.003-0.010-0.003v7.051l4.588-5.353 5.812 2.153 4-22.4z"></path>
</symbol>
</defs>
</svg>
